<?xml version="1.0" standalone="no"?>
<!DOCTYPE svg PUBLIC "-//W3C//DTD SVG 20010904//EN"
 "http://www.w3.org/TR/2001/REC-SVG-20010904/DTD/svg10.dtd">
<svg version="1.0" xmlns="http://www.w3.org/2000/svg"
 width="700.000000pt" height="700.000000pt" viewBox="0 0 700.000000 700.000000"
 preserveAspectRatio="xMidYMid meet">
<metadata>
Created by potrace 1.14, written by Peter Selinger 2001-2017
</metadata>
<g transform="translate(0.000000,700.000000) scale(0.100000,-0.100000)"
fill="#000000" stroke="none">
<path d="M3455 6993 c-60 -16 -134 -99 -155 -172 -13 -48 -12 -79 4 -121 40
-104 55 -150 61 -195 4 -27 9 -256 10 -507 l2 -458 -31 -5 c-17 -2 -71 -9
-121 -15 -109 -12 -130 -27 -129 -94 2 -85 70 -140 188 -150 32 -2 63 -9 69
-15 8 -8 -2 -37 -36 -104 -58 -114 -62 -148 -62 -445 0 -189 -2 -223 -15 -227
-8 -2 -35 -7 -60 -10 -41 -6 -64 -10 -187 -36 -290 -59 -648 -171 -879 -274
-290 -130 -518 -251 -687 -363 l-98 -66 5 -60 c3 -34 8 -126 11 -206 3 -80 7
-170 10 -200 3 -30 7 -86 10 -125 3 -38 8 -88 11 -110 2 -22 7 -58 10 -80 2
-22 7 -51 9 -65 3 -14 7 -41 10 -60 18 -113 39 -215 79 -375 101 -403 353
-928 609 -1270 63 -83 169 -213 247 -300 120 -133 431 -434 505 -487 5 -4 24
-18 40 -31 116 -93 374 -254 511 -319 122 -59 146 -58 299 16 96 47 372 210
420 248 6 4 44 33 85 64 186 140 442 394 620 614 25 30 47 57 50 60 3 3 30 39
60 80 30 41 57 77 60 80 9 7 190 280 190 285 0 3 17 33 38 67 135 220 282 598
368 943 19 77 39 156 44 175 5 19 12 51 15 70 3 19 12 69 20 110 8 41 17 89
19 105 2 17 9 62 15 100 42 281 55 608 27 663 -9 18 -51 53 -103 88 -48 31
-100 66 -115 76 -15 10 -29 18 -32 18 -3 0 -29 14 -58 31 -142 85 -478 239
-673 308 -215 77 -479 152 -625 177 -14 3 -47 9 -75 14 -102 19 -215 33 -375
46 -75 6 -140 12 -150 13 -3 1 -6 170 -6 376 l-1 375 126 1 c148 1 170 4 231
30 59 25 93 74 93 134 0 24 -5 51 -12 58 -12 15 -86 32 -186 43 l-61 6 3 377
c2 388 8 564 18 615 3 17 24 65 45 108 35 71 39 86 36 146 -6 149 -92 229
-250 230 -45 0 -90 -2 -101 -5z m143 -88 c68 -29 112 -86 114 -150 2 -64 -87
-145 -160 -145 -54 0 -162 102 -162 153 0 45 59 115 120 141 44 19 43 19 88 1z
m152 -3325 c58 -6 116 -12 130 -15 14 -3 50 -9 80 -15 30 -6 80 -17 110 -26
30 -8 64 -17 75 -19 90 -21 613 -213 642 -237 18 -14 9 -201 -16 -340 -24
-135 -78 -329 -123 -443 -90 -230 -269 -421 -519 -552 -91 -49 -140 -68 -249
-100 -117 -34 -182 -71 -275 -158 l-80 -75 -33 38 c-75 84 -232 283 -298 377
-184 260 -313 521 -385 780 -36 132 -42 156 -36 161 3 3 61 25 129 49 146 51
282 81 453 100 51 6 312 7 345 1 14 -2 50 -7 80 -11 88 -11 213 -37 290 -61
25 -7 84 -25 133 -39 77 -23 87 -29 87 -50 0 -41 -68 -262 -131 -424 -74 -192
-77 -210 -47 -245 78 -90 219 14 331 241 49 99 123 359 141 493 3 19 8 54 11
77 6 41 5 43 -34 62 -130 67 -400 158 -561 190 -216 43 -698 49 -892 11 -213
-43 -537 -157 -616 -217 -33 -25 -34 -27 -28 -77 24 -182 161 -610 257 -797
72 -142 196 -349 259 -434 179 -240 495 -565 548 -565 16 0 63 33 127 88 60
53 205 184 230 208 33 32 112 88 195 138 104 62 250 135 250 126 0 -20 -181
-257 -279 -364 -160 -175 -501 -473 -525 -459 -15 9 -62 46 -150 117 -262 214
-516 516 -731 870 -154 253 -294 632 -361 975 -10 52 -21 160 -23 227 -2 64 0
71 21 82 43 21 283 119 358 146 41 15 86 32 100 38 23 9 141 44 215 63 17 5
35 9 40 11 34 9 158 33 198 39 27 3 59 8 70 11 12 2 72 7 132 10 61 4 111 7
112 8 4 4 143 -5 243 -14z"/>
<path d="M3280 2900 c-58 -11 -141 -29 -185 -42 -74 -22 -80 -25 -77 -48 5
-48 64 -201 132 -346 108 -229 341 -554 398 -554 53 0 252 308 397 615 100
212 115 265 85 295 -19 19 -125 56 -190 66 -19 3 -67 12 -106 18 -111 20 -331
17 -454 -4z"/>
<path d="M2829 5325 c-2 -1 -26 -6 -53 -9 -27 -4 -52 -9 -56 -11 -4 -2 -18 -6
-31 -8 -14 -3 -96 -23 -182 -46 -381 -99 -411 -144 -336 -501 11 -52 24 -108
29 -125 5 -16 18 -74 30 -128 l22 -98 36 6 c95 15 142 35 138 58 -2 7 -6 30
-10 52 -5 22 -25 110 -46 195 -35 142 -49 207 -56 268 -1 13 5 26 14 31 18 9
211 61 252 67 14 2 36 7 50 10 14 3 36 8 50 10 14 3 59 11 100 18 41 7 80 11
87 9 14 -5 43 -75 43 -104 0 -26 -38 -42 -223 -90 -209 -55 -229 -68 -221
-148 7 -77 54 -82 289 -26 55 13 124 27 152 31 60 7 59 8 89 -106 16 -65 40
-88 86 -85 18 2 41 3 50 4 23 1 46 48 43 86 -4 41 -29 159 -61 280 -14 55 -26
105 -28 110 -25 108 -82 205 -135 231 -32 15 -113 28 -122 19z"/>
<path d="M4102 5313 c-44 -21 -110 -89 -129 -132 -30 -71 -16 -170 36 -243 32
-45 97 -76 236 -113 55 -14 152 -40 215 -56 135 -36 148 -42 156 -73 20 -82
-19 -83 -327 -6 -134 33 -274 63 -311 67 -65 5 -66 5 -80 -23 -15 -31 -16 -36
-5 -75 8 -33 62 -57 167 -75 32 -6 128 -24 159 -30 90 -18 254 -63 361 -98
l75 -24 59 60 c97 101 117 179 73 288 -36 88 -91 116 -395 195 -96 25 -191 54
-212 65 -43 22 -57 47 -37 67 32 32 109 21 487 -71 102 -24 194 -46 204 -48
17 -3 23 9 42 80 l22 83 -21 10 c-18 7 -466 121 -527 134 -8 2 -37 9 -65 15
-82 19 -147 20 -183 3z"/>
<path d="M5139 5013 c-39 -63 -197 -384 -243 -495 -38 -92 -44 -131 -23 -152
17 -17 58 -39 79 -43 32 -5 75 45 119 142 24 52 47 95 52 95 6 0 401 -196 416
-207 3 -2 -16 -47 -41 -101 -71 -150 -71 -146 0 -190 91 -58 84 -62 161 100
86 180 114 240 210 451 40 87 40 90 17 108 -29 22 -102 59 -118 59 -7 0 -26
-26 -42 -58 -38 -73 -108 -182 -118 -182 -26 0 -393 173 -403 191 -3 4 24 66
59 138 l65 129 -74 31 c-40 17 -76 31 -80 31 -3 0 -19 -21 -36 -47z"/>
<path d="M1780 5009 c-55 -25 -80 -47 -80 -70 0 -10 20 -62 45 -116 25 -53 47
-106 48 -117 2 -17 -18 -31 -103 -74 -102 -53 -295 -142 -305 -142 -5 0 -85
165 -85 174 0 2 -9 24 -20 50 l-21 46 -57 -30 c-83 -42 -110 -63 -104 -80 6
-20 167 -342 222 -445 92 -173 119 -215 138 -208 31 12 122 73 122 83 0 5 -23
55 -51 111 -35 69 -49 107 -43 117 13 20 311 178 372 197 32 9 47 -6 93 -94
50 -99 61 -111 94 -111 34 0 92 35 100 60 11 34 -12 91 -134 335 -116 234
-171 336 -181 334 -3 0 -25 -9 -50 -20z"/>
</g>
</svg>
