<?xml version="1.0" standalone="no"?>
<!DOCTYPE svg PUBLIC "-//W3C//DTD SVG 20010904//EN"
 "http://www.w3.org/TR/2001/REC-SVG-20010904/DTD/svg10.dtd">
<svg version="1.0" xmlns="http://www.w3.org/2000/svg"
 width="256.000000pt" height="256.000000pt" viewBox="0 0 256.000000 256.000000"
 preserveAspectRatio="xMidYMid meet">

<g transform="translate(0.000000,256.000000) scale(0.100000,-0.100000)"
fill="#000000" stroke="none">
<path d="M1232 2538 c-31 -35 -37 -71 -15 -109 15 -29 18 -59 18 -219 l0 -185
-50 -5 c-43 -4 -50 -8 -53 -28 -5 -34 25 -62 65 -62 39 0 40 -4 13 -48 -17
-27 -20 -50 -20 -137 l0 -104 -37 -6 c-85 -14 -253 -59 -320 -86 -95 -38 -247
-114 -302 -152 l-44 -30 7 -141 c13 -285 90 -524 245 -756 64 -96 203 -246
298 -322 89 -70 221 -148 252 -148 30 0 157 70 240 132 153 114 320 317 411
497 94 188 160 475 160 696 0 42 -2 45 -57 80 -202 127 -458 216 -673 233
l-85 7 0 137 0 138 63 0 c69 0 102 20 102 64 0 20 -6 24 -47 30 l-48 6 1 183
c0 161 2 185 19 211 26 40 24 90 -5 121 -32 34 -106 36 -138 3z m108 -28 c34
-34 20 -75 -33 -93 -21 -8 -67 32 -67 58 0 21 36 55 60 55 11 0 29 -9 40 -20z
m146 -1220 c47 -12 127 -38 178 -59 l91 -36 -1 -52 c-2 -65 -30 -181 -60 -250
-45 -104 -158 -194 -280 -224 -32 -8 -62 -24 -87 -48 l-38 -36 -30 35 c-121
142 -192 264 -229 393 l-19 68 27 10 c140 54 287 62 432 24 51 -14 96 -28 99
-30 6 -7 -28 -119 -56 -184 -18 -41 -20 -57 -12 -67 37 -45 108 23 145 141 14
44 28 101 31 126 l5 45 -51 22 c-124 51 -200 66 -336 67 -138 0 -194 -10 -327
-61 -49 -19 -68 -31 -68 -44 0 -40 53 -220 85 -285 18 -38 56 -104 83 -147 56
-85 199 -238 222 -238 9 0 49 33 90 72 64 62 109 92 204 136 5 3 -4 -13 -20
-34 -62 -84 -126 -153 -197 -211 l-74 -62 -54 43 c-134 105 -278 300 -340 459
-39 102 -68 214 -71 278 l-3 50 70 30 c220 95 402 116 591 69z"/>
<path d="M1166 1054 c-33 -8 -61 -16 -63 -18 -7 -6 39 -122 69 -175 17 -31 51
-82 75 -114 37 -47 48 -56 59 -46 46 38 174 274 174 321 0 12 -17 20 -69 32
-84 19 -166 19 -245 0z"/>
<path d="M925 1923 c-155 -39 -163 -53 -123 -221 l22 -94 30 6 c16 4 31 8 33
10 2 2 -7 48 -21 102 -14 54 -23 101 -20 103 11 11 198 51 205 44 4 -5 10 -17
13 -29 6 -18 -2 -22 -76 -40 -67 -16 -83 -23 -86 -39 -5 -45 10 -49 97 -28 45
12 83 18 85 14 2 -3 7 -21 11 -38 5 -25 12 -33 28 -33 45 0 47 10 22 112 -26
108 -37 133 -65 148 -25 14 -39 12 -155 -17z"/>
<path d="M1483 1932 c-37 -29 -46 -69 -26 -111 17 -33 24 -37 98 -57 44 -12
92 -25 108 -28 18 -4 27 -13 27 -26 0 -26 -7 -25 -141 10 -118 31 -132 29
-127 -14 3 -16 17 -22 78 -32 41 -7 104 -22 139 -33 l64 -20 28 29 c31 30 36
63 18 104 -13 28 -34 38 -143 65 -86 21 -107 34 -89 52 9 9 43 4 135 -19 67
-17 123 -30 124 -29 1 1 5 16 8 33 l7 30 -125 32 c-144 37 -153 38 -183 14z"/>
<path d="M1825 1728 c-54 -114 -56 -122 -39 -135 30 -22 44 -15 65 32 l20 45
79 -40 78 -39 -19 -38 c-10 -20 -19 -42 -19 -49 0 -10 50 -39 55 -32 8 12 115
242 115 247 0 8 -51 34 -55 29 -1 -2 -12 -22 -24 -45 -12 -24 -26 -43 -31 -43
-6 0 -42 16 -80 35 l-70 35 24 49 25 48 -25 12 c-14 6 -29 11 -33 11 -4 0 -34
-55 -66 -122z"/>
<path d="M643 1828 c-28 -14 -28 -18 -2 -69 11 -23 19 -42 17 -44 -10 -9 -151
-76 -153 -73 -2 2 -13 25 -24 51 l-21 48 -30 -16 c-16 -8 -30 -17 -30 -19 0
-12 121 -246 128 -246 4 0 18 7 30 16 l22 15 -20 39 c-11 22 -20 42 -20 44 0
7 136 76 148 76 5 0 17 -18 27 -40 19 -43 30 -48 61 -26 18 14 17 18 -41 135
-32 67 -62 121 -65 120 -3 0 -15 -5 -27 -11z"/>
</g>
</svg>
